<svg xmlns="http://www.w3.org/2000/svg" width="1048" height="316" viewBox="0 0 1048 316">
<rect width="100%" height="100%" fill="#ffffff"/>
<text x="24" y="28" font-family="Arial" font-size="18" font-weight="700" fill="#111827">val_003 - rl_bc_only</text>
<line x1="120" y1="38" x2="1020" y2="38" stroke="#9ca3af" stroke-width="1"/>
<text x="24" y="73" font-family="Arial" font-size="13" fill="#111827">c0 (cloud)</text>
<line x1="120" y1="88" x2="1020" y2="88" stroke="#e5e7eb" stroke-width="1"/>
<line x1="120" y1="30" x2="120" y2="282" stroke="#f3f4f6" stroke-width="1"/>
<text x="110" y="300" font-family="Arial" font-size="10" fill="#6b7280">0.0</text>
<line x1="300" y1="30" x2="300" y2="282" stroke="#f3f4f6" stroke-width="1"/>
<text x="290" y="300" font-family="Arial" font-size="10" fill="#6b7280">16.3</text>
<line x1="480" y1="30" x2="480" y2="282" stroke="#f3f4f6" stroke-width="1"/>
<text x="470" y="300" font-family="Arial" font-size="10" fill="#6b7280">32.7</text>
<line x1="660" y1="30" x2="660" y2="282" stroke="#f3f4f6" stroke-width="1"/>
<text x="650" y="300" font-family="Arial" font-size="10" fill="#6b7280">49.0</text>
<line x1="840" y1="30" x2="840" y2="282" stroke="#f3f4f6" stroke-width="1"/>
<text x="830" y="300" font-family="Arial" font-size="10" fill="#6b7280">65.3</text>
<line x1="1020" y1="30" x2="1020" y2="282" stroke="#f3f4f6" stroke-width="1"/>
<text x="1010" y="300" font-family="Arial" font-size="10" fill="#6b7280">81.7</text>
<rect x="102" y="65" width="10" height="10" rx="2" fill="#2563eb"/>
<text x="24" y="117" font-family="Arial" font-size="13" fill="#111827">e0 (edge)</text>
<line x1="120" y1="132" x2="1020" y2="132" stroke="#e5e7eb" stroke-width="1"/>
<line x1="120" y1="30" x2="120" y2="282" stroke="#f3f4f6" stroke-width="1"/>
<text x="110" y="300" font-family="Arial" font-size="10" fill="#6b7280">0.0</text>
<line x1="300" y1="30" x2="300" y2="282" stroke="#f3f4f6" stroke-width="1"/>
<text x="290" y="300" font-family="Arial" font-size="10" fill="#6b7280">16.3</text>
<line x1="480" y1="30" x2="480" y2="282" stroke="#f3f4f6" stroke-width="1"/>
<text x="470" y="300" font-family="Arial" font-size="10" fill="#6b7280">32.7</text>
<line x1="660" y1="30" x2="660" y2="282" stroke="#f3f4f6" stroke-width="1"/>
<text x="650" y="300" font-family="Arial" font-size="10" fill="#6b7280">49.0</text>
<line x1="840" y1="30" x2="840" y2="282" stroke="#f3f4f6" stroke-width="1"/>
<text x="830" y="300" font-family="Arial" font-size="10" fill="#6b7280">65.3</text>
<line x1="1020" y1="30" x2="1020" y2="282" stroke="#f3f4f6" stroke-width="1"/>
<text x="1010" y="300" font-family="Arial" font-size="10" fill="#6b7280">81.7</text>
<rect x="102" y="109" width="10" height="10" rx="2" fill="#059669"/>
<text x="24" y="161" font-family="Arial" font-size="13" fill="#111827">e1 (edge)</text>
<line x1="120" y1="176" x2="1020" y2="176" stroke="#e5e7eb" stroke-width="1"/>
<line x1="120" y1="30" x2="120" y2="282" stroke="#f3f4f6" stroke-width="1"/>
<text x="110" y="300" font-family="Arial" font-size="10" fill="#6b7280">0.0</text>
<line x1="300" y1="30" x2="300" y2="282" stroke="#f3f4f6" stroke-width="1"/>
<text x="290" y="300" font-family="Arial" font-size="10" fill="#6b7280">16.3</text>
<line x1="480" y1="30" x2="480" y2="282" stroke="#f3f4f6" stroke-width="1"/>
<text x="470" y="300" font-family="Arial" font-size="10" fill="#6b7280">32.7</text>
<line x1="660" y1="30" x2="660" y2="282" stroke="#f3f4f6" stroke-width="1"/>
<text x="650" y="300" font-family="Arial" font-size="10" fill="#6b7280">49.0</text>
<line x1="840" y1="30" x2="840" y2="282" stroke="#f3f4f6" stroke-width="1"/>
<text x="830" y="300" font-family="Arial" font-size="10" fill="#6b7280">65.3</text>
<line x1="1020" y1="30" x2="1020" y2="282" stroke="#f3f4f6" stroke-width="1"/>
<text x="1010" y="300" font-family="Arial" font-size="10" fill="#6b7280">81.7</text>
<rect x="102" y="153" width="10" height="10" rx="2" fill="#059669"/>
<text x="24" y="205" font-family="Arial" font-size="13" fill="#111827">d0 (device)</text>
<line x1="120" y1="220" x2="1020" y2="220" stroke="#e5e7eb" stroke-width="1"/>
<line x1="120" y1="30" x2="120" y2="282" stroke="#f3f4f6" stroke-width="1"/>
<text x="110" y="300" font-family="Arial" font-size="10" fill="#6b7280">0.0</text>
<line x1="300" y1="30" x2="300" y2="282" stroke="#f3f4f6" stroke-width="1"/>
<text x="290" y="300" font-family="Arial" font-size="10" fill="#6b7280">16.3</text>
<line x1="480" y1="30" x2="480" y2="282" stroke="#f3f4f6" stroke-width="1"/>
<text x="470" y="300" font-family="Arial" font-size="10" fill="#6b7280">32.7</text>
<line x1="660" y1="30" x2="660" y2="282" stroke="#f3f4f6" stroke-width="1"/>
<text x="650" y="300" font-family="Arial" font-size="10" fill="#6b7280">49.0</text>
<line x1="840" y1="30" x2="840" y2="282" stroke="#f3f4f6" stroke-width="1"/>
<text x="830" y="300" font-family="Arial" font-size="10" fill="#6b7280">65.3</text>
<line x1="1020" y1="30" x2="1020" y2="282" stroke="#f3f4f6" stroke-width="1"/>
<text x="1010" y="300" font-family="Arial" font-size="10" fill="#6b7280">81.7</text>
<rect x="102" y="197" width="10" height="10" rx="2" fill="#d97706"/>
<text x="24" y="249" font-family="Arial" font-size="13" fill="#111827">d1 (device)</text>
<line x1="120" y1="264" x2="1020" y2="264" stroke="#e5e7eb" stroke-width="1"/>
<line x1="120" y1="30" x2="120" y2="282" stroke="#f3f4f6" stroke-width="1"/>
<text x="110" y="300" font-family="Arial" font-size="10" fill="#6b7280">0.0</text>
<line x1="300" y1="30" x2="300" y2="282" stroke="#f3f4f6" stroke-width="1"/>
<text x="290" y="300" font-family="Arial" font-size="10" fill="#6b7280">16.3</text>
<line x1="480" y1="30" x2="480" y2="282" stroke="#f3f4f6" stroke-width="1"/>
<text x="470" y="300" font-family="Arial" font-size="10" fill="#6b7280">32.7</text>
<line x1="660" y1="30" x2="660" y2="282" stroke="#f3f4f6" stroke-width="1"/>
<text x="650" y="300" font-family="Arial" font-size="10" fill="#6b7280">49.0</text>
<line x1="840" y1="30" x2="840" y2="282" stroke="#f3f4f6" stroke-width="1"/>
<text x="830" y="300" font-family="Arial" font-size="10" fill="#6b7280">65.3</text>
<line x1="1020" y1="30" x2="1020" y2="282" stroke="#f3f4f6" stroke-width="1"/>
<text x="1010" y="300" font-family="Arial" font-size="10" fill="#6b7280">81.7</text>
<rect x="102" y="241" width="10" height="10" rx="2" fill="#d97706"/>
<rect x="120.00" y="57" width="182.21" height="24" rx="4" fill="#2563eb" opacity="0.86"/>
<text x="125.00" y="73" font-family="Arial" font-size="11" fill="#ffffff">T1</text>
<rect x="302.21" y="57" width="31.51" height="24" rx="4" fill="#2563eb" opacity="0.86"/>
<text x="307.21" y="73" font-family="Arial" font-size="11" fill="#ffffff">T5</text>
<rect x="333.72" y="57" width="118.71" height="24" rx="4" fill="#2563eb" opacity="0.86"/>
<text x="338.72" y="73" font-family="Arial" font-size="11" fill="#ffffff">T4</text>
<rect x="478.22" y="57" width="127.91" height="24" rx="4" fill="#2563eb" opacity="0.86"/>
<text x="483.22" y="73" font-family="Arial" font-size="11" fill="#ffffff">T8</text>
<rect x="606.13" y="57" width="108.64" height="24" rx="4" fill="#2563eb" opacity="0.86"/>
<text x="611.13" y="73" font-family="Arial" font-size="11" fill="#ffffff">T2</text>
<rect x="714.77" y="57" width="133.58" height="24" rx="4" fill="#2563eb" opacity="0.86"/>
<text x="719.77" y="73" font-family="Arial" font-size="11" fill="#ffffff">T3</text>
<rect x="848.34" y="57" width="171.66" height="24" rx="4" fill="#2563eb" opacity="0.86"/>
<text x="853.34" y="73" font-family="Arial" font-size="11" fill="#ffffff">T10</text>
<rect x="120.00" y="101" width="355.19" height="24" rx="4" fill="#059669" opacity="0.86"/>
<text x="125.00" y="117" font-family="Arial" font-size="11" fill="#ffffff">T6</text>
<rect x="475.19" y="101" width="417.62" height="24" rx="4" fill="#059669" opacity="0.86"/>
<text x="480.19" y="117" font-family="Arial" font-size="11" fill="#ffffff">T7</text>
<rect x="120.00" y="145" width="443.75" height="24" rx="4" fill="#059669" opacity="0.86"/>
<text x="125.00" y="161" font-family="Arial" font-size="11" fill="#ffffff">T0</text>
<rect x="606.89" y="145" width="406.72" height="24" rx="4" fill="#059669" opacity="0.86"/>
<text x="611.89" y="161" font-family="Arial" font-size="11" fill="#ffffff">T9</text>
</svg>
